<?xml version="1.0" encoding="utf-8"?>
<!-- Generator: Adobe Illustrator 19.0.0, SVG Export Plug-In . SVG Version: 6.00 Build 0)  -->
<svg version="1.1" id="Calque_1" xmlns="http://www.w3.org/2000/svg" xmlns:xlink="http://www.w3.org/1999/xlink" x="0px" y="0px"
	 viewBox="-909 1132 80 70" style="enable-background:new -909 1132 80 70;" xml:space="preserve">
<style type="text/css">
	.st0{display:none;}
	.st1{display:inline;}
	.st2{fill:none;stroke:#2D2D2D;stroke-width:2;stroke-miterlimit:10;}
</style>
<g id="Calque_1_1_" class="st0">
	<g class="st1">
		<path d="M-894,1161c2.1,0,3.8-1.7,3.8-3.8s-1.7-3.8-3.8-3.8s-3.8,1.7-3.8,3.8S-896,1161-894,1161z M-894,1154.9
			c1.2,0,2.2,1,2.2,2.2s-1,2.2-2.2,2.2s-2.2-1-2.2-2.2S-895,1154.9-894,1154.9z"/>
		<path d="M-863,1160.4c-9.3,0-16.9,7.6-16.9,16.9s7.6,16.9,16.9,16.9s16.9-7.6,16.9-16.9S-853.8,1160.4-863,1160.4z M-863,1192.5
			c-8.4,0-15.2-6.8-15.2-15.2s6.8-15.2,15.2-15.2s15.2,6.8,15.2,15.2S-854.5,1192.5-863,1192.5z"/>
		<path d="M-863,1165.4c-6.6,0-11.9,5.3-11.9,11.9s5.3,11.9,11.9,11.9c6.6,0,11.9-5.3,11.9-11.9S-856.5,1165.4-863,1165.4z
			 M-863,1187.5c-5.6,0-10.2-4.6-10.2-10.2s4.6-10.2,10.2-10.2c5.6,0,10.2,4.6,10.2,10.2S-857.5,1187.5-863,1187.5z"/>
		<path d="M-863,1168.4c-4.9,0-8.9,4-8.9,8.9s4,8.9,8.9,8.9s8.9-4,8.9-8.9S-858,1168.4-863,1168.4z M-863,1184.5
			c-4,0-7.2-3.2-7.2-7.2s3.2-7.2,7.2-7.2s7.2,3.2,7.2,7.2S-859,1184.5-863,1184.5z"/>
		<path d="M-883,1153.6c-1,0-1.8,0.8-1.8,1.8s0.8,1.8,1.8,1.8s1.8-0.8,1.8-1.8S-882,1153.6-883,1153.6z M-883,1155.6
			c-0.1,0-0.2-0.1-0.2-0.2s0.1-0.2,0.2-0.2s0.2,0.1,0.2,0.2C-883,1155.5-883,1155.6-883,1155.6z"/>
		<path d="M-882,1163.4c0-1-0.8-1.8-1.8-1.8s-1.8,0.8-1.8,1.8s0.8,1.8,1.8,1.8C-883,1165.2-882,1164.4-882,1163.4z M-884,1163.4
			c0-0.1,0.1-0.2,0.2-0.2s0.2,0.1,0.2,0.2s-0.1,0.2-0.2,0.2S-884,1163.5-884,1163.4z"/>
		<path d="M-897.2,1166.3c-1,0-1.8,0.8-1.8,1.8s0.8,1.8,1.8,1.8s1.8-0.8,1.8-1.8S-896.2,1166.3-897.2,1166.3z M-897.2,1168.3
			c-0.1,0-0.2-0.1-0.2-0.2s0.1-0.2,0.2-0.2s0.2,0.1,0.2,0.2C-897.2,1168.2-897.2,1168.3-897.2,1168.3z"/>
		<path d="M-844.5,1156.1c1,0,1.8-0.8,1.8-1.8s-0.8-1.8-1.8-1.8s-1.8,0.8-1.8,1.8C-846.5,1155.3-845.5,1156.1-844.5,1156.1z
			 M-844.5,1154.1c0.1,0,0.2,0.1,0.2,0.2s-0.1,0.2-0.2,0.2s-0.2-0.1-0.2-0.2S-844.8,1154.1-844.5,1154.1z"/>
		<path d="M-833.2,1155.4h-1.7v-2.2l-1.9-0.8l1.4-3.4l-9.6-4l-1.4,3.4l-0.9-0.4l-6.1-10.6h-3.8v-1.8h-1.7v1.8h-8.2v-1.8h-1.7v1.8
			h-3.9l-4.6,10.4l-20.7,1.5l-6.7,9.5v34.2l5.7,1.3h2.9l3.9-1.1h15.3l0,0c3.7,3.2,8.6,5.2,13.9,5.2c5.3,0,10.2-2,13.9-5.2l0,0h8.2
			l6-6v-30.1h1.7L-833.2,1155.4L-833.2,1155.4z M-844.2,1147.2l6.6,2.7l-0.7,1.7l-6.6-2.7L-844.2,1147.2z M-836.8,1154.4v2.6h-10.5
			l-2.2-7.4l0.5-0.2L-836.8,1154.4z M-843.5,1169.2c1.7,0.1,3.1,1.7,3.1,3.7c0,1.3-0.6,2.5-1.5,3.1c0-0.2,0-0.4-0.1-0.6
			c0-0.2,0-0.4-0.1-0.7c-0.1-0.5-0.1-1-0.2-1.4c0-0.2-0.1-0.3-0.1-0.5c-0.1-0.6-0.3-1.2-0.5-1.8v-0.1
			C-843,1170.4-843.2,1169.8-843.5,1169.2z M-849.5,1161.1l-5.4-9l3.9-1.8l3.9,13.2C-847.8,1162.6-848.5,1161.8-849.5,1161.1z
			 M-880,1164.6l3.8-14.6l4.8,2.2l-6.2,9.8C-878.5,1162.7-879.2,1163.6-880,1164.6z M-892,1164.2l6.5-3.7h5l-2.7,10.5
			c-0.6,2-1,4.1-1,6.3c0,5.5,2.1,10.5,5.6,14.3h-13.5C-892,1191.6-892,1164.2-892,1164.2z M-880,1158.8h-4.8l-2.5-6.5l-5.5-1.6
			l15.2-1.1L-880,1158.8z M-856.2,1150.9H-870l-1.4-0.6l2.8-3l11.7-0.1l2.2,3L-856.2,1150.9z M-869.5,1152.6h13.2l3.8,6.2
			c-3.1-1.7-6.6-2.7-10.3-2.7c-3.9,0-7.6,1.1-10.7,3L-869.5,1152.6z M-871.5,1139.2h17.1l5,8.6l-3.6,1.7l-3-4l-13.3,0.1l-3.6,3.9
			l-2.7-1.2L-871.5,1139.2z M-897.2,1151.2l8.5,2.5l2.1,5.5l-6.4,3.6l-9.6-3.9L-897.2,1151.2z M-896.2,1192.7h-2.4l-4.3-1v-31.3
			l9.3,3.8v27.8L-896.2,1192.7z M-863,1196.8c-10.8,0-19.5-8.8-19.5-19.5c0-5.7,2.4-10.7,6.3-14.3l0,0l0,0c3.5-3.2,8.1-5.2,13.2-5.2
			c4.7,0,9,1.7,12.3,4.4l0.2,0.3l0.1-0.1c2.3,1.9,4.1,4.4,5.3,7.2c0,0,0,0.1,0.1,0.1c0.2,0.5,0.4,1.1,0.6,1.7c0,0.1,0,0.1,0,0.2
			c0.2,0.6,0.3,1.2,0.5,1.7v0.1c0.1,0.6,0.2,1.2,0.3,1.8c0,0,0,0,0,0.1c0.1,0.6,0.1,1.3,0.1,2
			C-843.5,1188.1-852.2,1196.8-863,1196.8z M-841.8,1191.6h-5.8c3.3-3.6,5.4-8.4,5.6-13.7c1.9-0.8,3.2-2.7,3.2-5
			c0-2.9-2.2-5.3-4.8-5.3c-0.2,0-0.3,0-0.5,0l-2.6-9h10v27.9L-841.8,1191.6z"/>
	</g>
</g>
<g id="Calque_2">
	<polyline class="st2" points="-877.8,1192.6 -892.1,1192.5 -896.8,1194.5 -900.2,1194.5 -904.3,1192.8 -904.3,1159.6 
		-897.7,1150.6 -877.8,1149.3 -872.3,1138.6 -854.5,1138.6 -849,1148.3 -836.2,1154.4 -836.2,1187.3 -841.7,1192.8 -849,1192.8 	"/>
	<polygon class="st2" points="-846.5,1149.3 -845.1,1146.2 -837.1,1149.9 -838.5,1153.3 	"/>
	<path class="st2" d="M-897.6,1157.3c0-1.6,1.6-3.1,3.1-3.1s3.1,1.1,3.1,3s-1,3.2-2.8,3.2C-896.5,1160.2-897.6,1158.9-897.6,1157.3z
		"/>
	<line class="st2" x1="-868.5" y1="1138.6" x2="-868.5" y2="1136"/>
	<line class="st2" x1="-858.6" y1="1138.6" x2="-858.6" y2="1136"/>
	<polyline class="st2" points="-877.8,1149.3 -870.6,1152 -856.2,1152 -849,1148.3 	"/>
	<polygon class="st2" points="-872.9,1150.9 -869.4,1146.9 -856.9,1146.9 -854,1150.9 -856.2,1152 -870.6,1152 	"/>
	<line class="st2" x1="-837.1" y1="1156.4" x2="-833.7" y2="1156.4"/>
	<line class="st2" x1="-851" y1="1149.3" x2="-845.7" y2="1166.9"/>
	<path class="st2" d="M-863.6,1157.3c1,0,20.7,0.4,20.7,20.7s-20.7,19.9-20.7,19.9s-20-0.8-20-20.3S-864.7,1157.3-863.6,1157.3z"/>
	<line class="st2" x1="-877.4" y1="1150.1" x2="-881.6" y2="1168"/>
	<line class="st2" x1="-870.6" y1="1152.3" x2="-876.7" y2="1161.8"/>
	<line class="st2" x1="-856.2" y1="1152.3" x2="-851.3" y2="1160.8"/>
	<path class="st2" d="M-844.3,1168.6c0,0,3.6,0,4.3,3.9c0.7,3.5-2.5,5.1-2.5,5.1S-842.5,1171.6-844.3,1168.6z"/>
	<line class="st2" x1="-836.2" y1="1158.1" x2="-848.4" y2="1158.1"/>
	<line class="st2" x1="-893.6" y1="1163.8" x2="-904.3" y2="1159.6"/>
	<polyline class="st2" points="-880.3,1159.9 -886.1,1159.9 -893.1,1163.8 -893.3,1192.4 	"/>
	<polyline class="st2" points="-886.1,1159.4 -888.6,1153.3 -897.7,1150.6 	"/>
	<path class="st2" d="M-847.3,1176.9c0-4.8-1-15.6-15.9-15.6c-13.8,0-16.3,11-16.3,15.9s1.7,16.2,16.3,16.2
		S-847.3,1181.8-847.3,1176.9z"/>
	<path class="st2" d="M-863.3,1188.7c-4.4,0-10.9-1.5-10.9-10.8c0-10.2,6.8-11.4,10.9-11.4c4.1,0,10.9,1.8,10.9,11.2
		C-852.4,1187.1-858.9,1188.7-863.3,1188.7z"/>
	<path class="st2" d="M-871.3,1177.8c0,2.6,0.5,7.7,7.9,7.7s8.1-5.6,8.1-7.9s-0.5-7.9-8.1-7.9
		C-870.9,1169.8-871.3,1175.1-871.3,1177.8z"/>
</g>
</svg>
